<?xml version="1.0" encoding="iso-8859-1"?>
<!-- Generator: Adobe Illustrator 19.0.0, SVG Export Plug-In . SVG Version: 6.00 Build 0)  -->
<svg version="1.1" id="Capa_1" xmlns="http://www.w3.org/2000/svg" xmlns:xlink="http://www.w3.org/1999/xlink" x="0px" y="0px"
	 viewBox="0 0 512 512" style="enable-background:new 0 0 512 512;" xml:space="preserve">
<path style="fill:#4E901E;" d="M338.128,15.328c-2.71,1.958-5.792,4.339-9.1,7.152c-21.126,17.993-51.352,53.866-52.506,112.493
	c-0.041,1.937-1.628,3.483-3.576,3.483h-25.928c-1.958,0-3.545-1.556-3.576-3.514c-0.289-19.828,2.885-117.11,92.233-126.076
	C339.313,8.505,341.096,13.184,338.128,15.328z"/>
<path style="fill:#47821C;" d="M329.028,22.479c-21.126,17.993-51.352,53.866-52.506,112.493c-0.041,1.937-1.628,3.483-3.576,3.483
	H256.88C257.571,112.218,265.403,41.06,329.028,22.479z"/>
<path style="fill:#4E901E;" d="M259.91,195.97c-0.412,2.782-0.866,5.07-1.247,6.771c-0.423,1.886-2.288,3.092-4.194,2.7
	l-40.253-8.234c-1.876-0.381-3.123-2.195-2.803-4.081c10.089-59.586-37.924-104.033-64.347-123.541
	c-3.174-2.35-0.721-7.348,3.092-6.317c8.924,2.422,17.148,5.122,24.723,8.038C263.692,105.541,263.599,170.877,259.91,195.97z"/>
<path style="fill:#47821C;" d="M259.91,195.97l-29.205-5.977c-1.876-0.381-3.123-2.195-2.803-4.081
	c8.77-51.774-26.33-92.12-53.021-114.606C263.692,105.541,263.599,170.877,259.91,195.97z"/>
<path style="fill:#4E901E;" d="M370.161,117.495c-24.867,14.169-73.051,49.799-74.737,113.83c-0.051,1.929-1.637,3.464-3.566,3.464
	h-33.441c-1.948,0-3.539-1.553-3.573-3.501c-0.332-19.279,3.801-111.952,113.247-120.455
	C371.899,110.537,373.479,115.605,370.161,117.495z"/>
<path style="fill:#5EAC24;" d="M302.78,213.448c-0.052,1.927-1.639,3.463-3.566,3.463h-49.187c-1.968,0-3.545-1.587-3.576-3.545
	C244.895,94.998,165.492,33.681,134.494,14.225c-3.143-1.968-1.577-6.791,2.123-6.585c13.613,0.763,26.114,2.618,37.594,5.4
	c119.202,28.855,128.477,157.064,128.631,193.926C302.863,209.625,302.822,211.809,302.78,213.448z"/>
<path style="fill:#6DC82A;" d="M302.842,206.966h-26.021c-1.968,0-3.545-1.587-3.576-3.555
	C271.875,99.151,210.094,39.153,174.211,13.04C293.413,41.895,302.688,170.104,302.842,206.966z"/>
<path style="fill:#91DC5A;" d="M379.978,43.224c-5.596,3.813-12.84,9.234-20.765,16.375c-28.68,25.866-66.346,74.363-67.479,151.314
	c-0.031,1.968-1.608,3.545-3.566,3.545h-38.078c-1.937,0-3.524-1.546-3.566-3.483c-0.546-24.084,1.845-165.03,131.177-174.274
	C381.359,36.433,383.008,41.163,379.978,43.224z"/>
<path style="fill:#7ED63E;" d="M359.212,59.599c-28.68,25.866-66.346,74.363-67.479,151.314c-0.031,1.968-1.608,3.545-3.566,3.545
	h-22.981C266.516,177.493,278.192,86.465,359.212,59.599z"/>
<path style="fill:#6DC82A;" d="M265.341,234.595c-0.031,1.948-1.628,3.494-3.566,3.494h-41.087c-1.917,0-3.494-1.515-3.566-3.442
	c-1.546-45.673-33.915-76.198-62.492-94.346c-9.213-5.853-18.034-10.419-25.3-13.789c-3.586-1.659-2.185-7.059,1.752-6.812
	C260.497,127.924,265.712,215.88,265.341,234.595z"/>
<g>
	<path style="fill:#5EAC24;" d="M249.718,238.088h-29.03c-1.917,0-3.494-1.515-3.566-3.442
		c-1.546-45.673-33.915-76.198-62.492-94.346C231.91,158.314,247.059,211.706,249.718,238.088z"/>
	<path style="fill:#5EAC24;" d="M382.178,164.11c-31.525,9.212-93.595,35.055-105.979,97.786c-0.372,1.885-2.183,3.129-4.078,2.815
		l-40.525-6.7c-1.918-0.317-3.233-2.101-2.956-4.024c2.753-19.082,22.738-109.951,152.867-96.862
		C385.422,157.519,385.955,163.006,382.178,164.11z"/>
</g>
<path style="fill:#6DC82A;" d="M246.328,260.44c5.379-25.124,28.185-88.853,121.109-91.46L246.328,260.44z"/>
<path style="fill:#FF9811;" d="M301.156,192.589c-83.567,0-78.063-0.099-82.371,0.237c-34.907,2.829-62.45,30.312-65.975,64.408
	c-0.9,8.403-0.478,176.533-0.01,181.055c3.777,37.197,35.274,65.913,73.106,65.913c78.337,0,82.946,1.51,99.354-4.658
	c27.772-10.374,47.703-37.29,47.703-68.84c0-52.837,0-113.982,0-165.865C372.964,224.823,340.522,192.784,301.156,192.589z"/>
<path style="fill:#AA6100;" d="M262.56,490.836c0,4.617,0,13.366,0,13.366c30.133-1.279,57.009,5.977,84.576-17.663
	c6.09-5.215,11.305-11.408,15.417-18.333c-8.409-17.622-26.34-29.813-47.137-29.927h-0.299
	C286.087,438.279,262.56,461.806,262.56,490.836z"/>
<path style="fill:#884D00;" d="M162.567,468.206c12.927,21.758,36.559,35.997,63.213,35.997h36.78c1.123-4.266,0-8.749,0-13.366
	c0-28.927-23.362-52.392-52.248-52.557h-0.309C189.082,438.279,171.017,450.501,162.567,468.206z"/>
<g>
	<path style="fill:#CC7400;" d="M209.703,438.279c0,21.621-13.057,40.201-31.72,48.26c-6.09-5.215-11.305-11.408-15.417-18.333
		c-15.088-25.369-8.862-44.003-10.285-82.711c1.608-0.155,3.226,0.227,4.864,0.227h0.309
		C186.331,385.886,209.703,409.362,209.703,438.279z"/>
	<circle style="fill:#CC7400;" cx="262.25" cy="438.277" r="52.554"/>
	<path style="fill:#CC7400;" d="M372.837,385.443c-0.123,45.882,0.29,46.251-0.392,52.846c-1.872,18.45-10.842,35.948-25.526,48.425
		c-18.869-7.976-32.111-26.66-32.111-48.435c0-29.02,23.527-52.557,52.557-52.557h0.299c0.206,0,0.402,0,0.608-0.01
		C369.807,385.629,371.333,385.289,372.837,385.443z"/>
</g>
<g>
	<circle style="fill:#EE8700;" cx="210.002" cy="385.73" r="52.554"/>
	<circle style="fill:#EE8700;" cx="315.117" cy="385.73" r="52.554"/>
</g>
<g>
	<path style="fill:#FF9811;" d="M209.703,333.175c0,31.082-26.87,55.257-57.421,52.32V280.391c1.608-0.155,3.226,0.227,4.864,0.227
		h0.309C186.331,280.782,209.703,304.247,209.703,333.175z"/>
	<circle style="fill:#FF9811;" cx="262.25" cy="333.172" r="52.554"/>
	<path style="fill:#FF9811;" d="M372.837,280.339v105.104c-31.292,3.214-58.029-21.306-58.029-52.269
		c0-29.03,23.527-52.557,52.557-52.557h0.299C369.416,280.628,371.137,280.164,372.837,280.339z"/>
</g>
<g>
	<circle style="fill:#FFA733;" cx="210.002" cy="280.615" r="52.554"/>
	<circle style="fill:#FFA733;" cx="315.117" cy="280.615" r="52.554"/>
</g>
<g>
	<path style="fill:#FFB655;" d="M209.703,228.06c0,28.927-23.373,52.392-52.248,52.557h-0.309c-1.639,0-3.257-0.072-4.864-0.227
		V264.84c0-2.566,0.134-5.101,0.402-7.605c0.629-6.08,2.02-11.934,4.071-17.468c3.689-9.976,9.522-18.921,16.952-26.268
		c7.276-7.203,16.066-12.871,25.856-16.468C205.942,205.728,209.703,216.456,209.703,228.06z"/>
	<path style="fill:#FFB655;" d="M314.808,228.06c0,28.927-23.362,52.392-52.248,52.557h-0.309c-29.02,0-52.547-23.527-52.547-52.557
		c0-13.665,5.215-26.114,13.758-35.461c0.361-0.01,0.711-0.01,1.072-0.01h76.497C309.583,201.936,314.808,214.395,314.808,228.06z"
		/>
	<path style="fill:#FFB655;" d="M372.837,264.84v15.499c-1.7,0.175-3.421,0.268-5.173,0.278h-0.299
		c-29.03,0-52.557-23.527-52.557-52.557c0-10.099,2.844-19.529,7.791-27.536c1.35-2.195,4.112-3.112,6.472-2.102
		c8.378,3.597,15.953,8.739,22.342,15.077c7.43,7.348,13.263,16.293,16.952,26.268c2.051,5.534,3.442,11.387,4.071,17.468
		C372.703,259.739,372.837,262.274,372.837,264.84z"/>
</g>
<g>
	<path style="fill:#FFC477;" d="M259.715,192.589c-7.08,20.642-26.66,35.471-49.713,35.471h-0.299
		c-13.964-0.082-26.629-5.606-35.997-14.561c7.276-7.203,16.066-12.871,25.856-16.468c0.618-0.227,1.237-0.443,1.865-0.66
		c5.482-1.855,11.253-3.061,17.231-3.545c1.587-0.124,3.184-0.206,4.802-0.227c0.361-0.01,0.711-0.01,1.072-0.01H259.715z"/>
	<path style="fill:#FFC477;" d="M351.412,213.498c-9.429,9.027-22.218,14.561-36.295,14.561h-0.309
		c-22.919-0.134-42.355-14.922-49.404-35.471h35.626c2.082,0.01,4.153,0.113,6.194,0.299c5.956,0.546,11.697,1.803,17.138,3.72
		c0.247,0.072,0.484,0.165,0.721,0.247C335.058,200.442,344.023,206.171,351.412,213.498z"/>
</g>
<path d="M307.773,398.316c-1.189,5.571,2.116,11.159,7.976,11.46v0.01c8.519,0.356,11.492-7.9,8.76-13.655
	C321.193,389.136,309.66,389.417,307.773,398.316z"/>
<path d="M210.027,409.806c7.209,0,10.354-6.964,8.419-12.655c-2.718-7.928-14.184-7.915-16.849,0.031
	C199.814,402.458,202.805,409.806,210.027,409.806z"/>
<path d="M254.526,449.76c-2.304,6.242,1.591,13.452,9.12,12.851c6.956-0.495,9.481-7.533,7.574-12.789
	C268.442,442.132,257.328,442.149,254.526,449.76z"/>
<path d="M308.227,293.716c-2.603,6.696,2.186,13.665,8.574,13.026c8.347-0.216,10.666-9.615,6.966-14.943
	C320.219,286.652,310.928,286.732,308.227,293.716z"/>
<path d="M210.027,288.203c-12.351,0-12.182,19.924,1.608,18.436C221.964,305.039,221.405,288.203,210.027,288.203z"/>
<path d="M262.667,251.382h0.433c7.028-0.144,9.821-6.781,8.358-12.078c-2.528-9.314-16.777-8.6-17.55,2.061
	C253.577,246.188,256.494,251.279,262.667,251.382z"/>
<path d="M262.861,354.437c11.962,0,11.962-18.55,0-18.55C250.898,335.887,250.898,354.437,262.861,354.437z"/>
<path d="M382.286,149.524c-14.634-1.474-28.391-1.721-41.242-0.773c11.387-10.965,23.383-18.993,32.946-24.444
	c10.46-5.956,5.513-22.033-6.492-21.085c-14.829,1.144-28.463,3.854-40.82,8.1c14.819-24.98,35.543-46.549,57.648-61.616
	c9.543-6.492,4.359-21.445-7.173-20.621c-22.61,1.618-42.819,7.224-60.348,16.726c7.647-9.141,16.54-17.385,25.846-24.125
	c9.368-6.74,3.689-21.559-7.75-20.415c-17.179,1.721-32.524,6.678-45.601,14.747c-3.627,2.236-4.761,6.997-2.525,10.635
	c2.247,3.627,7.008,4.761,10.635,2.525c7.059-4.349,14.943-7.636,23.579-9.842c-12.253,11.016-28.309,29.02-39.356,54.742
	c-1.443,1.639-2.834,3.329-4.194,5.05c-3.37-5.503-6.977-10.738-10.821-15.695c2.782-5.4,6.06-10.656,9.924-15.551
	c2.648-3.349,2.071-8.213-1.278-10.862c-3.349-2.638-8.213-2.061-10.852,1.288c-3.195,4.04-6.039,8.265-8.564,12.583
	C224.212,17.636,182.919,2.611,137.081,0.014c-11.831-0.536-16.468,14.726-6.698,20.848c6.482,4.071,13.016,8.677,19.415,13.696
	c3.415,2.681,8.373,2.03,10.98-1.477c2.536-3.412,1.636-8.277-1.711-10.899c-2.311-1.81-4.642-3.563-6.981-5.267
	c50.136,6.482,90.563,30.586,115.678,76.095c-10.738,17.447-17.88,36.852-22.455,56.649c-10.47-38.377-31.442-75.239-62.152-106.094
	c-3.009-3.03-7.904-3.04-10.924-0.021c-3.03,3.009-3.04,7.904-0.031,10.924c3.658,3.679,7.41,7.677,11.181,12.026
	c-9.842-4.163-20.961-7.801-31.205-10.594c-12.036-3.253-19.742,12.582-9.697,19.992c13.747,10.151,31.905,25.97,45.117,46.312
	c-15.654-5.142-34.162-8.739-56.03-10.13c-12.439-0.763-16.808,16.303-5.493,21.538c28.082,13.047,54.196,32.029,69.468,56.7
	c-10.398,4.102-19.601,10.305-26.949,17.581h-0.01c-1.484,1.195-11.995,11.882-17.756,26.608c-3.164,7.75-5.4,16.818-5.585,25.495
	c-0.927,26.691-0.289,175.552,0.062,178.963c3.926,38.542,35.883,72.849,82.659,72.859c13.727,0.258,37.512,0.165,54.649,0.165
	c27.124,0,33.523-0.742,45.673-5.307c31.534-11.789,52.722-42.355,52.722-76.084v-68.351c0-4.322-3.504-7.826-7.826-7.826
	c-4.335,0-7.844,3.521-7.826,7.857c0.021,4.907,0.043,10.014,0.07,15.557c-20.209-0.927-38.377-15.86-42.005-37.573
	c17.169-2.267,32.338-11.882,41.891-25.928c-0.014,7.512-0.019,11.07-0.016,17.321c0.002,4.321,3.506,7.822,7.826,7.822h0.06
	c4.322,0,7.826-3.504,7.826-7.826v-66.917c0-21.878-9.306-42.953-23.723-56.721c-1.041-2.092-11.552-10.419-21.373-15.221
	c14.634-9.141,31.215-16.128,48.435-21.167C396.24,168.146,394.642,150.781,382.286,149.524z M350.484,121.009
	c-14.634,10.429-27.134,22.909-33.348,31.132c-3.153,0.68-6.245,1.453-9.264,2.319c2.267-7.688,4.926-14.943,7.884-21.775
	C325.473,127.594,336.943,123.544,350.484,121.009z M362.974,46.326c-38.552,31.194-63.326,72.818-72.838,114.523
	c-11.181,4.967-21.229,11.387-30.123,19.281c-1.092-2.102-2.267-4.205-3.555-6.307C265.403,108.086,298.359,57.342,362.974,46.326z
	 M262.878,204.946c0.938,1.669,2.339,3.823,2.824,4.534c0-0.021-0.01-0.052-0.01-0.072c9.697,14.139,24.692,23.259,41.139,25.65
	c-6.678,41.005-59.823,51.352-81.917,17.179c-3.38-5.215-5.555-10.893-6.585-17.097c4.194-0.556,8.265-1.577,12.191-2.968h0.072
	C244.442,227.226,255.891,217.374,262.878,204.946z M254.572,392.802c-3.957,24.341-27.103,41.191-51.692,37.017
	c-18.89-3.287-33.626-17.88-36.821-37.058c18.9-2.638,34.987-14.19,43.973-30.174C219.121,378.705,235.466,390.278,254.572,392.802z
	 M201.458,324.447c-17.808-3.586-32.307-17.911-35.399-36.831c18.426-2.638,34.719-13.84,43.952-30.174
	c9.1,16.179,25.475,27.732,44.56,30.257C250.213,313.884,224.707,329.61,201.458,324.447z M218.328,340.255
	c19.189-2.535,35.502-14.16,44.55-30.236c9.027,16.035,25.155,27.464,43.952,30.153c-4.04,24.764-27.289,40.912-51.115,37.182
	C237.125,374.469,221.626,360.011,218.328,340.255z M168.697,77.335c12.016,4.328,24.692,10.347,35.677,17.478
	c8.523,13.582,16.313,29.185,22.311,46.91c-4.916-3.566-10.347-6.936-16.344-10.048C200.819,110.807,185.505,92.422,168.697,77.335z
	 M152.023,129.748c35.11,5.276,68.304,18.704,88.482,47.92v0.01c0.01,0,0.01,0.01,0.01,0.01c1.618,2.339,3.081,4.699,4.411,7.049
	c-18.282-0.01-24.836-0.402-33.905,1.216C197.614,162.406,175.88,143.712,152.023,129.748z M247.678,200.206
	c-8.677,12.995-23.414,20.116-37.594,20.116c-14.304,0-23.847-7.142-23.929-7.173C208.765,196.053,230.808,201.195,247.678,200.206z
	 M174.85,224.124c7.873,5.761,17.086,9.543,26.876,10.934c-3.39,20.796-20.714,36.213-41.201,37.615
	C160.639,261.193,159.021,243.704,174.85,224.124z M160.34,314.183c0.938,1.103,7.039,11.315,20.477,18.879
	c6.348,3.576,13.407,6.039,20.91,7.111c-2.772,19.467-19.745,36.306-41.324,37.635C160.402,377.808,160.329,322.54,160.34,314.183z
	 M179.642,477.141c-8.852-8.481-15.345-22.765-15.345-24.238c-0.093-0.247-0.185-0.505-0.258-0.763l-0.01,0.01
	c-3.988-11.315-3.329-18.704-3.442-32.524c10.419,14.819,25.269,23.393,41.139,25.65
	C199.469,459.117,191.153,470.587,179.642,477.141z M192.606,487.169c7.224-5.184,13.15-11.841,17.426-19.467
	c7.842,13.902,21.044,24.393,36.78,28.659C224.089,496.361,210.578,497.793,192.606,487.169z M218.328,445.36
	c18.982-2.504,35.409-14.005,44.55-30.246c9.048,16.066,25.186,27.484,43.952,30.164c-3.092,18.962-17.612,33.255-35.389,36.831
	C247.647,487.282,222.512,471.051,218.328,445.36z M322,492.465h-0.01c-16.633,6.049-28.669,2.999-43.654,3.895
	c15.736-4.266,28.937-14.757,36.77-28.659c4.339,7.739,10.378,14.489,17.746,19.683C329.049,489.621,324.586,491.61,322,492.465z
	 M345.888,477.358h-0.01c-11.614-6.472-20.095-17.911-22.445-31.998c17.499-2.319,32.616-12.202,41.994-26.093
	C365.324,432.777,367.601,455.644,345.888,477.358z M359.676,392.823c-2.463,17.303-16.674,33.266-36.017,36.852
	c-22.95,4.699-48.219-10.8-52.485-36.955c18.426-2.628,34.688-13.768,43.932-30.112C324.226,378.777,340.58,390.319,359.676,392.823
	z M306.562,324.447c-17.808-3.586-32.297-17.911-35.389-36.831c18.766-2.69,34.915-14.18,43.942-30.174
	c9.069,16.118,25.413,27.732,44.571,30.257C355.4,313.503,330.306,329.61,306.562,324.447z M365.066,257.947
	c0.546,5.132,0.299,8.275,0.361,14.778c-20.93-1.061-38.491-16.54-41.994-37.573c9.656-1.278,19.158-4.905,27.567-11.078
	C355.142,229.174,363.85,246.013,365.066,257.947z M339.643,213.129c-20.58,13.253-48.095,7.358-61.554-12.923
	C301.451,200.927,318.743,197.423,339.643,213.129z M317.816,186.53c-12.81-2.772-20.734-1.443-38.882-1.783
	c21.425-14.623,49.332-21.549,81-21.074C344.744,169.702,330.45,177.286,317.816,186.53z"/>
<g>
</g>
<g>
</g>
<g>
</g>
<g>
</g>
<g>
</g>
<g>
</g>
<g>
</g>
<g>
</g>
<g>
</g>
<g>
</g>
<g>
</g>
<g>
</g>
<g>
</g>
<g>
</g>
<g>
</g>
</svg>
